<svg width="64" height="64" viewBox="0 0 64 64" xmlns="http://www.w3.org/2000/svg">
  <defs>
    <linearGradient id="grad" x1="0" y1="0" x2="1" y2="1">
      <stop offset="0%" stop-color="#4f46e5"/>
      <stop offset="50%" stop-color="#7c3aed"/>
      <stop offset="100%" stop-color="#0f172a"/>
    </linearGradient>
  </defs>
  <rect x="4" y="4" width="56" height="56" rx="14" fill="url(#grad)"/>
  <rect x="10" y="10" width="44" height="44" rx="12" fill="#020617" opacity="0.75"/>
  <path d="M20 40L26 22h4l6 18h-4.2l-1.2-4H25.4L24.2 40H20zm6.4-7.4h4L28 25.8l-1.6 6.8z" fill="#e5e7eb"/>
  <path d="M38 24h6c3.2 0 5 1.7 5 4.3 0 2-1.1 3.4-2.9 3.9L49 40h-4.2l-2.6-7H42v7h-4v-16zm6 7c1.2 0 2-.6 2-1.8S45.2 27 44 27h-2v4h2z" fill="#a5b4fc"/>
</svg>
